<svg width="210" height="210" viewBox="0 0 210 210" fill="none" xmlns="http://www.w3.org/2000/svg">
<circle cx="105" cy="105" r="102" fill="#0085FF" stroke="black" stroke-width="6"/>
<mask id="mask0_1128_4058" style="mask-type:alpha" maskUnits="userSpaceOnUse" x="0" y="0" width="210" height="210">
<circle cx="105" cy="105" r="105" fill="#F59D19"/>
</mask>
<g mask="url(#mask0_1128_4058)">
<rect y="73" width="210" height="11" fill="black"/>
<rect y="83" width="210" height="56" fill="white"/>
<rect y="138" width="210" height="11" fill="black"/>
<rect y="154" width="210" height="5" fill="black"/>
<rect y="55" width="210" height="5" fill="black"/>
</g>
<mask id="mask1_1128_4058" style="mask-type:alpha" maskUnits="userSpaceOnUse" x="0" y="-4" width="210" height="210">
<circle cx="105" cy="101" r="105" fill="#F59D19"/>
</mask>
<g mask="url(#mask1_1128_4058)">
<path d="M13 62.5H194.5L206.5 103.5L190 151.5H17.5L5 103.5L13 62.5Z" fill="white"/>
<rect x="7" y="69" width="196" height="11" fill="black"/>
<rect y="134" width="210" height="11" fill="black"/>
<rect x="20" y="150" width="175" height="5" fill="black"/>
<rect x="12" y="59" width="180" height="5" fill="black"/>
</g>
<path d="M61.4042 100.373C58.8191 97.218 55.6257 95.6404 51.824 95.6404C50.1513 95.6404 48.5926 95.9445 47.148 96.5528C45.7413 97.161 44.5248 97.9974 43.4984 99.0619C42.4719 100.088 41.6546 101.324 41.0463 102.768C40.476 104.213 40.1909 105.772 40.1909 107.445C40.1909 109.155 40.476 110.733 41.0463 112.178C41.6546 113.622 42.4719 114.877 43.4984 115.941C44.5628 117.006 45.7984 117.842 47.205 118.45C48.6116 119.059 50.1323 119.363 51.767 119.363C55.3406 119.363 58.553 117.842 61.4042 114.801V128.031L60.2637 128.43C58.553 129.038 56.9563 129.475 55.4736 129.741C53.991 130.045 52.5273 130.198 51.0827 130.198C48.1174 130.198 45.2661 129.646 42.5289 128.544C39.8298 127.403 37.4347 125.826 35.3438 123.811C33.2909 121.758 31.6372 119.344 30.3826 116.569C29.1281 113.755 28.5008 110.695 28.5008 107.388C28.5008 104.08 29.109 101.058 30.3256 98.3205C31.5801 95.5453 33.2339 93.1693 35.2868 91.1924C37.3777 89.1775 39.7917 87.6188 42.5289 86.5163C45.2661 85.3758 48.1364 84.8056 51.1397 84.8056C52.8505 84.8056 54.5232 84.9957 56.1579 85.3758C57.8307 85.718 59.5794 86.2692 61.4042 87.0296V100.373ZM95.7088 113.033L90.6906 98.7197L85.6724 113.033H95.7088ZM98.6741 121.53H82.7071L80.141 129H68.2227L84.5889 86.0031H96.7923L113.158 129H101.24L98.6741 121.53ZM145.535 95.4693H132.077V102.654H144.337V112.121H132.077V129H120.9V86.0031H145.535V95.4693ZM179.512 95.4693H166.225V102.654H178.771V112.121H166.225V119.534H179.512V129H155.048V86.0031H179.512V95.4693Z" fill="black"/>
<circle cx="105" cy="105" r="99.5" stroke="black" stroke-width="11"/>
</svg>
