<svg width="159" height="58" viewBox="0 0 159 58" fill="none" xmlns="http://www.w3.org/2000/svg">
<path d="M36.4955 45.0747C34.7127 47.1722 32.5628 48.8326 30.0459 50.0562C27.5289 51.2447 24.6974 51.839 21.5512 51.839C18.7546 51.839 16.1678 51.3496 13.7907 50.3708C11.4136 49.357 9.33362 47.9762 7.55079 46.2283C5.80292 44.4455 4.42211 42.3655 3.40834 39.9884C2.42954 37.6113 1.94013 35.0245 1.94013 32.2279C1.94013 29.4663 2.42954 26.8969 3.40834 24.5198C4.42211 22.1077 5.80292 20.0278 7.55079 18.2799C9.33362 16.4971 11.4136 15.1163 13.7907 14.1375C16.1678 13.1237 18.7546 12.6168 21.5512 12.6168C24.4527 12.6168 27.057 13.1586 29.3642 14.2423C31.6714 15.291 33.6989 16.7942 35.4468 18.7518L31.2519 22.8418C29.9934 21.3387 28.5776 20.2026 27.0046 19.4335C25.4664 18.6644 23.6487 18.2799 21.5512 18.2799C19.6985 18.2799 17.9331 18.612 16.2552 19.2762C14.6122 19.9054 13.1789 20.8318 11.9554 22.0553C10.7319 23.2438 9.75311 24.7121 9.019 26.4599C8.31985 28.1728 7.97028 30.0955 7.97028 32.2279C7.97028 34.3603 8.31985 36.3004 9.019 38.0483C9.75311 39.7612 10.7319 41.2294 11.9554 42.4529C13.1789 43.6415 14.6122 44.5678 16.2552 45.232C17.9331 45.8613 19.6985 46.1759 21.5512 46.1759C23.7885 46.1759 25.7811 45.7214 27.5289 44.8125C29.2768 43.8687 30.8324 42.5753 32.1957 40.9323L36.4955 45.0747ZM56.5728 47.8538H56.2581C55.4891 48.8676 54.4928 49.794 53.2693 50.6329C52.0458 51.437 50.4902 51.839 48.6025 51.839C47.2391 51.839 45.9632 51.6118 44.7747 51.1573C43.5861 50.7378 42.5549 50.1435 41.6809 49.3745C40.807 48.5705 40.1078 47.6441 39.5835 46.5954C39.0941 45.5117 38.8494 44.3231 38.8494 43.0297C38.8494 41.6664 39.1116 40.4429 39.6359 39.3592C40.1952 38.2755 40.9468 37.3666 41.8907 36.6325C42.8695 35.8984 44.0231 35.3391 45.3514 34.9546C46.6798 34.5351 48.1131 34.3253 49.6512 34.3253C51.3641 34.3253 52.7974 34.5001 53.951 34.8497C55.1046 35.1643 55.9785 35.4614 56.5728 35.7411V34.7448C56.5728 33.9758 56.398 33.2591 56.0484 32.5949C55.7338 31.9308 55.2793 31.3714 54.6851 30.917C54.1257 30.4276 53.479 30.0605 52.7449 29.8158C52.0108 29.5362 51.2418 29.3963 50.4377 29.3963C49.1443 29.3963 47.9733 29.6585 46.9245 30.1829C45.9108 30.6723 45.0019 31.4763 44.1979 32.5949L39.5835 29.5537C40.807 27.8757 42.3276 26.6172 44.1454 25.7783C45.9632 24.9043 48.0257 24.4674 50.3329 24.4674C54.1432 24.4674 57.0796 25.4112 59.1421 27.2989C61.2396 29.1866 62.2883 31.8783 62.2883 35.3741V51H56.5728V47.8538ZM56.5728 40.303C55.8037 39.8486 54.9472 39.4815 54.0034 39.2019C53.0595 38.9222 51.9759 38.7824 50.7524 38.7824C48.9346 38.7824 47.4838 39.2019 46.4002 40.0409C45.3165 40.8798 44.7747 41.8936 44.7747 43.0822C44.7747 43.7114 44.9145 44.2707 45.1941 44.7601C45.4738 45.2146 45.8234 45.6166 46.2429 45.9661C46.6973 46.3157 47.2042 46.5779 47.7635 46.7527C48.3578 46.9275 48.9521 47.0149 49.5463 47.0149C50.4902 47.0149 51.3816 46.8401 52.2206 46.4905C53.0945 46.106 53.8461 45.6166 54.4753 45.0223C55.1046 44.3931 55.6114 43.6764 55.996 42.8724C56.3805 42.0684 56.5728 41.2119 56.5728 40.303ZM79.5225 13.0363C80.5014 13.0363 81.3753 13.1237 82.1444 13.2985C82.9134 13.4733 83.5951 13.7005 84.1894 13.9801L82.5638 19.1189C82.1793 18.9441 81.7773 18.8043 81.3578 18.6994C80.9383 18.5945 80.414 18.5421 79.7847 18.5421C78.771 18.5421 77.897 18.8917 77.1629 19.5908C76.4638 20.29 76.1142 21.3037 76.1142 22.6321V25.3063H82.6687V30.4451H76.1142V51H70.2938V30.4451H65.5746V25.3063H70.2938V22.2126C70.2938 20.7794 70.521 19.5034 70.9755 18.3848C71.4299 17.2312 72.0592 16.2699 72.8632 15.5008C73.7021 14.6968 74.681 14.085 75.7996 13.6655C76.9532 13.246 78.1942 13.0363 79.5225 13.0363ZM109.544 44.865C108.461 46.8576 106.922 48.518 104.93 49.8464C102.937 51.1748 100.49 51.839 97.5888 51.839C95.6662 51.839 93.8833 51.5069 92.2403 50.8427C90.6323 50.1435 89.234 49.1822 88.0455 47.9587C86.8569 46.7352 85.9305 45.3019 85.2663 43.659C84.6022 41.981 84.2701 40.1457 84.2701 38.1532C84.2701 36.3004 84.5847 34.5526 85.2139 32.9096C85.8431 31.2316 86.7171 29.7809 87.8357 28.5574C88.9893 27.2989 90.3701 26.3026 91.9782 25.5685C93.5862 24.8344 95.369 24.4674 97.3266 24.4674C99.3192 24.4674 101.085 24.7995 102.623 25.4636C104.196 26.1278 105.524 27.0542 106.608 28.2428C107.691 29.4313 108.513 30.8646 109.072 32.5425C109.667 34.2205 109.964 36.0557 109.964 38.0483C109.964 38.2231 109.964 38.3804 109.964 38.5202C109.929 38.695 109.911 38.8523 109.911 38.9921C109.876 39.132 109.859 39.2718 109.859 39.4116H90.0905C90.1953 40.6351 90.4925 41.7013 90.9819 42.6102C91.4713 43.5191 92.0656 44.2707 92.7647 44.865C93.4988 45.4593 94.3028 45.8962 95.1768 46.1759C96.0507 46.4555 96.9071 46.5954 97.7461 46.5954C99.4241 46.5954 100.805 46.1934 101.889 45.3893C102.972 44.5853 103.864 43.589 104.563 42.4005L109.544 44.865ZM104.143 34.9546C104.073 34.4302 103.899 33.8534 103.619 33.2242C103.374 32.56 102.972 31.9657 102.413 31.4414C101.889 30.882 101.189 30.4101 100.315 30.0256C99.4765 29.641 98.4453 29.4488 97.2218 29.4488C95.5438 29.4488 94.0931 29.9557 92.8696 30.9694C91.681 31.9482 90.877 33.2766 90.4575 34.9546H104.143Z" fill="black"/>
<path fill-rule="evenodd" clip-rule="evenodd" d="M139.436 17.2438C138.016 24.0416 134.677 30.5198 129.416 35.8117C127.892 37.3441 126.268 38.716 124.565 39.9272C127.816 41.6202 130.87 43.8268 133.607 46.5474C136.142 49.0683 138.238 51.8642 139.894 54.8397C141.654 51.1346 144.062 47.6599 147.118 44.5856C149.344 42.3463 151.785 40.4499 154.374 38.8966C152.598 37.6645 150.904 36.2597 149.317 34.682C144.304 29.6983 141.01 23.64 139.436 17.2438Z" fill="black"/>
</svg>
