<svg width="123" height="72" viewBox="0 0 123 72" fill="none" xmlns="http://www.w3.org/2000/svg">
<path d="M5.24772 5.512H1.41972V21H4.23572V15.896H5.59972C9.07572 15.896 11.2757 13.476 11.2757 10.704C11.2757 7.932 9.42772 5.512 5.24772 5.512ZM5.75372 13.256H4.23572V8.152H5.75372C7.27172 8.152 8.45972 9.098 8.45972 10.704C8.45972 12.134 7.27172 13.256 5.75372 13.256ZM18.7188 10.264C15.4628 10.264 13.4388 12.706 13.4388 15.72C13.4388 18.734 15.5948 21.176 18.7188 21.176C21.6888 21.176 23.9988 18.734 23.9988 15.72C23.9988 12.706 21.6888 10.264 18.7188 10.264ZM18.7188 18.536C17.3328 18.536 16.2548 17.282 16.2548 15.72C16.2548 14.158 17.3328 12.904 18.7188 12.904C20.1048 12.904 21.1828 14.158 21.1828 15.72C21.1828 17.282 20.1048 18.536 18.7188 18.536ZM38.1738 10.44L36.0178 16.908L33.9498 10.44H31.0898L32.0578 13.234L30.7378 16.908L28.5818 10.44H25.4578L29.5058 21H31.9698L33.3998 17.018L34.7858 21H37.2498L41.2978 10.44H38.1738ZM52.608 15.522C52.608 11.43 49.594 10.264 47.834 10.264C44.622 10.264 42.752 12.706 42.752 15.72C42.752 18.734 44.82 21.176 47.966 21.176C49.55 21.176 51.068 20.384 51.904 19.24L50.056 17.546C49.572 18.074 48.78 18.536 47.966 18.536C46.756 18.536 45.964 17.81 45.678 16.776H52.498C52.564 16.336 52.608 15.94 52.608 15.522ZM47.834 12.904C49.022 12.904 49.726 13.74 49.814 14.664H45.656C45.92 13.63 46.624 12.904 47.834 12.904ZM58.2861 12.398V10.44H55.4701V21H58.2861V16.578C58.2861 14.862 59.2101 13.894 60.2221 13.608C60.8601 13.432 61.4981 13.432 62.1581 13.608V10.264C60.1781 10.396 59.0121 11.056 58.2861 12.398ZM74.3588 15.522C74.3588 11.43 71.3448 10.264 69.5848 10.264C66.3728 10.264 64.5028 12.706 64.5028 15.72C64.5028 18.734 66.5708 21.176 69.7168 21.176C71.3008 21.176 72.8188 20.384 73.6548 19.24L71.8068 17.546C71.3228 18.074 70.5308 18.536 69.7168 18.536C68.5068 18.536 67.7148 17.81 67.4288 16.776H74.2488C74.3148 16.336 74.3588 15.94 74.3588 15.522ZM69.5848 12.904C70.7728 12.904 71.4768 13.74 71.5648 14.664H67.4068C67.6708 13.63 68.3748 12.904 69.5848 12.904ZM84.6046 5.16V11.628C84.0106 10.858 82.9546 10.264 81.7006 10.264C78.9506 10.264 76.8606 12.596 76.8606 15.72C76.8606 18.844 78.9506 21.176 81.7006 21.176C82.9546 21.176 84.0106 20.582 84.6046 19.768V21H87.4206V5.16H84.6046ZM82.1406 18.536C80.7766 18.536 79.6766 17.26 79.6766 15.72C79.6766 14.18 80.7766 12.904 82.1406 12.904C83.5046 12.904 84.6046 14.18 84.6046 15.72C84.6046 17.26 83.5046 18.536 82.1406 18.536ZM101.938 5.16H99.1221V21H101.938V19.768C102.532 20.582 103.588 21.176 104.842 21.176C107.592 21.176 109.682 18.844 109.682 15.72C109.682 12.596 107.592 10.264 104.842 10.264C103.588 10.264 102.532 10.858 101.938 11.628V5.16ZM104.402 18.536C103.038 18.536 101.938 17.26 101.938 15.72C101.938 14.18 103.038 12.904 104.402 12.904C105.766 12.904 106.866 14.18 106.866 15.72C106.866 17.26 105.766 18.536 104.402 18.536ZM118.754 10.44L116.598 16.512L114.442 10.44H111.318L115.036 20.318L112.462 26.632H115.542L121.878 10.44H118.754Z" fill="black" fill-opacity="0.73"/>
<circle cx="61.5" cy="49.3572" r="21.8571" fill="#67C519" stroke="black" stroke-width="1.28571"/>
<mask id="mask0_825_4461" style="mask-type:alpha" maskUnits="userSpaceOnUse" x="39" y="26" width="45" height="45">
<circle cx="61.5" cy="48.5" r="22.5" fill="#F59D19"/>
</mask>
<g mask="url(#mask0_825_4461)">
<path d="M41.7856 40.25H80.6784L83.2499 49.0357L79.7141 59.3214H42.7499L40.0713 49.0357L41.7856 40.25Z" fill="white"/>
<rect x="40.5" y="41.6429" width="42" height="2.35714" fill="black"/>
<rect x="39" y="55.5715" width="45" height="2.35714" fill="black"/>
<rect x="43.2856" y="59.0001" width="37.5" height="1.07143" fill="black"/>
<rect x="41.5718" y="39.5" width="38.5714" height="1.07143" fill="black"/>
</g>
<path d="M52.158 48.5087C51.604 47.8325 50.9197 47.4944 50.1051 47.4944C49.7466 47.4944 49.4126 47.5596 49.1031 47.69C48.8016 47.8203 48.541 47.9995 48.321 48.2276C48.1011 48.4476 47.9259 48.7123 47.7956 49.0219C47.6734 49.3315 47.6123 49.6655 47.6123 50.0239C47.6123 50.3905 47.6734 50.7286 47.7956 51.0381C47.9259 51.3477 48.1011 51.6165 48.321 51.8446C48.5491 52.0727 48.8139 52.252 49.1153 52.3823C49.4167 52.5127 49.7426 52.5778 50.0929 52.5778C50.8586 52.5778 51.547 52.252 52.158 51.6003V54.4352L51.9136 54.5207C51.547 54.6511 51.2048 54.7448 50.8871 54.8018C50.5694 54.867 50.2558 54.8996 49.9462 54.8996C49.3108 54.8996 48.6998 54.7814 48.1133 54.5452C47.5349 54.3008 47.0217 53.9627 46.5736 53.531C46.1337 53.091 45.7793 52.5738 45.5105 51.9791C45.2417 51.3762 45.1072 50.7204 45.1072 50.0117C45.1072 49.303 45.2376 48.6553 45.4983 48.0688C45.7671 47.4741 46.1215 46.9649 46.5614 46.5413C47.0094 46.1096 47.5267 45.7756 48.1133 45.5393C48.6998 45.2949 49.3149 45.1727 49.9584 45.1727C50.325 45.1727 50.6835 45.2134 51.0338 45.2949C51.3922 45.3682 51.7669 45.4864 52.158 45.6493V48.5087ZM59.509 51.2214L58.4336 48.1543L57.3583 51.2214H59.509ZM60.1444 53.0422H56.7229L56.173 54.6429H53.6191L57.1261 45.4293H59.7411L63.2482 54.6429H60.6943L60.1444 53.0422ZM70.186 47.4578H67.3021V48.9975H69.9294V51.0259H67.3021V54.6429H64.9071V45.4293H70.186V47.4578ZM77.4668 47.4578H74.6196V48.9975H77.3079V51.0259H74.6196V52.6145H77.4668V54.6429H72.2246V45.4293H77.4668V47.4578Z" fill="black"/>
<circle cx="61.5" cy="49.3572" r="21.3214" stroke="black" stroke-width="2.35714"/>
</svg>
